<svg xmlns="http://www.w3.org/2000/svg" viewBox="0 0 1200 480" preserveAspectRatio="xMidYMid slice">
  <defs>
    <linearGradient id="g" x1="0" y1="0" x2="1" y2="1">
      <stop offset="0" stop-color="#ff6a8e"/>
      <stop offset="1" stop-color="#e2294f"/>
    </linearGradient>
  </defs>
  <rect width="1200" height="480" fill="url(#g)"/>
  <circle cx="1010" cy="120" r="175" fill="#ffffff" opacity="0.08"/>
  <circle cx="870" cy="390" r="120" fill="#ffffff" opacity="0.07"/>
  <!-- gift box -->
  <g transform="translate(890 150)" fill="#ffffff" opacity="0.2">
    <rect x="0" y="70" width="200" height="150" rx="10"/>
    <rect x="0" y="40" width="200" height="48" rx="8"/>
    <rect x="88" y="40" width="24" height="180"/>
    <path d="M100 40 C70 0 20 10 40 40 Z"/>
    <path d="M100 40 C130 0 180 10 160 40 Z"/>
  </g>
  <!-- confetti -->
  <g opacity="0.55">
    <rect x="780" y="120" width="14" height="14" rx="3" fill="#fff" transform="rotate(20 787 127)"/>
    <rect x="1120" y="300" width="12" height="12" rx="3" fill="#fff" transform="rotate(35 1126 306)"/>
    <circle cx="760" cy="340" r="6" fill="#fff"/>
    <circle cx="1130" cy="160" r="5" fill="#fff"/>
  </g>
</svg>
